<svg width="99" height="12" viewBox="0 0 99 12" fill="none" xmlns="http://www.w3.org/2000/svg">
<path d="M4.646 2.836L5.192 3.694L1.01 6.244L5.192 8.8L4.598 9.64L0.02 6.778V5.698L4.646 2.836ZM12.2133 1.732V7.216C12.2133 7.584 12.1633 7.942 12.0633 8.29C11.9633 8.638 11.7993 8.952 11.5713 9.232C11.3473 9.512 11.0493 9.734 10.6773 9.898C10.3053 10.062 9.84931 10.144 9.30931 10.144C8.45331 10.144 7.68331 9.892 6.99931 9.388L7.50931 8.614C7.85331 8.838 8.16931 8.988 8.45731 9.064C8.74931 9.14 9.02331 9.178 9.27931 9.178C9.82731 9.178 10.2553 9.002 10.5633 8.65C10.8713 8.294 11.0253 7.8 11.0253 7.168V2.674H8.55931V1.732H12.2133ZM15.4666 7.228C15.4986 7.924 15.6866 8.43 16.0306 8.746C16.3786 9.062 16.7906 9.22 17.2666 9.22C17.5826 9.22 17.8726 9.172 18.1366 9.076C18.4006 8.98 18.6686 8.84 18.9406 8.656L19.4626 9.382C19.1666 9.618 18.8246 9.806 18.4366 9.946C18.0486 10.082 17.6466 10.15 17.2306 10.15C16.5986 10.15 16.0606 10.012 15.6166 9.736C15.1766 9.456 14.8406 9.068 14.6086 8.572C14.3806 8.076 14.2666 7.5 14.2666 6.844C14.2666 6.208 14.3806 5.64 14.6086 5.14C14.8406 4.64 15.1666 4.246 15.5866 3.958C16.0066 3.67 16.5066 3.526 17.0866 3.526C17.9026 3.526 18.5446 3.806 19.0126 4.366C19.4846 4.922 19.7206 5.684 19.7206 6.652C19.7206 6.76 19.7186 6.864 19.7146 6.964C19.7106 7.064 19.7046 7.152 19.6966 7.228H15.4666ZM17.0986 4.426C16.6466 4.426 16.2726 4.586 15.9766 4.906C15.6806 5.226 15.5106 5.72 15.4666 6.388H18.6106C18.5986 5.748 18.4586 5.262 18.1906 4.93C17.9266 4.594 17.5626 4.426 17.0986 4.426ZM26.3939 8.548C26.3939 8.8 26.4339 8.984 26.5139 9.1C26.5939 9.212 26.7199 9.296 26.8919 9.352L26.6219 10.144C26.3339 10.108 26.0819 10.022 25.8659 9.886C25.6539 9.75 25.4979 9.542 25.3979 9.262C25.1699 9.558 24.8819 9.78 24.5339 9.928C24.1859 10.076 23.8079 10.15 23.3999 10.15C22.7639 10.15 22.2619 9.97 21.8939 9.61C21.5259 9.25 21.3419 8.776 21.3419 8.188C21.3419 7.532 21.5979 7.028 22.1099 6.676C22.6259 6.32 23.3659 6.142 24.3299 6.142H25.2479V5.662C25.2479 5.226 25.1179 4.916 24.8579 4.732C24.6019 4.548 24.2439 4.456 23.7839 4.456C23.5719 4.456 23.3219 4.482 23.0339 4.534C22.7499 4.586 22.4459 4.668 22.1219 4.78L21.8279 3.94C22.2159 3.792 22.5899 3.686 22.9499 3.622C23.3099 3.558 23.6459 3.526 23.9579 3.526C24.7699 3.526 25.3779 3.712 25.7819 4.084C26.1899 4.456 26.3939 4.962 26.3939 5.602V8.548ZM23.7239 9.286C24.0159 9.286 24.2979 9.21 24.5699 9.058C24.8459 8.906 25.0719 8.694 25.2479 8.422V6.892H24.4079C23.7399 6.892 23.2659 7.006 22.9859 7.234C22.7059 7.458 22.5659 7.766 22.5659 8.158C22.5659 8.91 22.9519 9.286 23.7239 9.286ZM28.9273 10V3.676H29.9173L30.0013 4.528C30.2613 4.204 30.5773 3.956 30.9492 3.784C31.3253 3.612 31.6993 3.526 32.0713 3.526C32.6793 3.526 33.1273 3.692 33.4153 4.024C33.7033 4.352 33.8473 4.81 33.8473 5.398V10H32.6953V6.106C32.6953 5.706 32.6713 5.382 32.6233 5.134C32.5793 4.886 32.4853 4.706 32.3413 4.594C32.1973 4.478 31.9793 4.42 31.6873 4.42C31.3433 4.42 31.0313 4.526 30.7513 4.738C30.4713 4.95 30.2473 5.178 30.0793 5.422V10H28.9273ZM41.6966 4.294C41.6966 4.938 41.5586 5.458 41.2826 5.854C41.0106 6.246 40.6326 6.532 40.1486 6.712C39.6646 6.892 39.1106 6.982 38.4866 6.982H37.4546V10H36.2606V1.732H38.4506C39.4586 1.732 40.2506 1.942 40.8266 2.362C41.4066 2.778 41.6966 3.422 41.6966 4.294ZM40.4366 4.306C40.4366 3.698 40.2606 3.27 39.9086 3.022C39.5606 2.774 39.1126 2.65 38.5646 2.65H37.4546V6.046H38.5466C38.9146 6.046 39.2406 5.994 39.5246 5.89C39.8086 5.786 40.0306 5.608 40.1906 5.356C40.3546 5.104 40.4366 4.754 40.4366 4.306ZM45.7719 0.651999C46.0119 0.651999 46.2039 0.726 46.3479 0.874C46.4959 1.022 46.5699 1.202 46.5699 1.414C46.5699 1.634 46.4959 1.82 46.3479 1.972C46.2039 2.12 46.0119 2.194 45.7719 2.194C45.5359 2.194 45.3439 2.12 45.1959 1.972C45.0519 1.82 44.9799 1.634 44.9799 1.414C44.9799 1.202 45.0519 1.022 45.1959 0.874C45.3439 0.726 45.5359 0.651999 45.7719 0.651999ZM46.6299 3.676V9.124H48.3879V10H43.5519V9.124H45.4779V4.552H43.6119V3.676H46.6299ZM51.4432 7.228C51.4752 7.924 51.6632 8.43 52.0072 8.746C52.3552 9.062 52.7672 9.22 53.2432 9.22C53.5592 9.22 53.8492 9.172 54.1132 9.076C54.3772 8.98 54.6452 8.84 54.9172 8.656L55.4392 9.382C55.1432 9.618 54.8012 9.806 54.4132 9.946C54.0252 10.082 53.6232 10.15 53.2072 10.15C52.5752 10.15 52.0372 10.012 51.5932 9.736C51.1532 9.456 50.8172 9.068 50.5852 8.572C50.3572 8.076 50.2432 7.5 50.2432 6.844C50.2432 6.208 50.3572 5.64 50.5852 5.14C50.8172 4.64 51.1432 4.246 51.5632 3.958C51.9832 3.67 52.4832 3.526 53.0632 3.526C53.8792 3.526 54.5212 3.806 54.9892 4.366C55.4612 4.922 55.6972 5.684 55.6972 6.652C55.6972 6.76 55.6952 6.864 55.6912 6.964C55.6872 7.064 55.6812 7.152 55.6732 7.228H51.4432ZM53.0752 4.426C52.6232 4.426 52.2492 4.586 51.9532 4.906C51.6572 5.226 51.4872 5.72 51.4432 6.388H54.5872C54.5752 5.748 54.4352 5.262 54.1672 4.93C53.9032 4.594 53.5392 4.426 53.0752 4.426ZM57.7685 10V9.148H58.7285V4.528H57.7685V3.676H59.6105L59.8205 5.158C60.0605 4.634 60.3545 4.232 60.7025 3.952C61.0545 3.668 61.5105 3.526 62.0705 3.526C62.2545 3.526 62.4165 3.54 62.5565 3.568C62.7005 3.596 62.8465 3.632 62.9945 3.676L62.8145 5.896H61.9265V4.576H61.9205C60.9725 4.576 60.2925 5.254 59.8805 6.61V9.148H61.1645V10H57.7685ZM64.9638 10V9.148H65.9238V4.528H64.9638V3.676H66.8058L67.0158 5.158C67.2558 4.634 67.5498 4.232 67.8978 3.952C68.2498 3.668 68.7058 3.526 69.2658 3.526C69.4498 3.526 69.6118 3.54 69.7518 3.568C69.8958 3.596 70.0418 3.632 70.1898 3.676L70.0098 5.896H69.1218V4.576H69.1158C68.1678 4.576 67.4878 5.254 67.0758 6.61V9.148H68.3598V10H64.9638ZM73.0291 7.228C73.0611 7.924 73.2491 8.43 73.5931 8.746C73.9411 9.062 74.3531 9.22 74.8291 9.22C75.1451 9.22 75.4351 9.172 75.6991 9.076C75.9631 8.98 76.2311 8.84 76.5031 8.656L77.0251 9.382C76.7291 9.618 76.3871 9.806 75.9991 9.946C75.6111 10.082 75.2091 10.15 74.7931 10.15C74.1611 10.15 73.6231 10.012 73.1791 9.736C72.7391 9.456 72.4031 9.068 72.1711 8.572C71.9431 8.076 71.8291 7.5 71.8291 6.844C71.8291 6.208 71.9431 5.64 72.1711 5.14C72.4031 4.64 72.7291 4.246 73.1491 3.958C73.5691 3.67 74.0691 3.526 74.6491 3.526C75.4651 3.526 76.1071 3.806 76.5751 4.366C77.0471 4.922 77.2831 5.684 77.2831 6.652C77.2831 6.76 77.2811 6.864 77.2771 6.964C77.2731 7.064 77.2671 7.152 77.2591 7.228H73.0291ZM74.6611 4.426C74.2091 4.426 73.8351 4.586 73.5391 4.906C73.2431 5.226 73.0731 5.72 73.0291 6.388H76.1731C76.1611 5.748 76.0211 5.262 75.7531 4.93C75.4891 4.594 75.1251 4.426 74.6611 4.426ZM88.0451 11.254L87.1211 10.84L92.2451 0.274L93.1571 0.711999L92.5811 1.894L98.7311 5.692V6.778L94.1531 9.64L93.5591 8.806L97.7411 6.244L92.1371 2.812L88.0451 11.254Z" fill="black"/>
</svg>
